<svg width="23" height="22" viewBox="0 0 23 22" fill="none" xmlns="http://www.w3.org/2000/svg">
<path d="M13.9621 0.860974C14.4106 0.860974 14.7741 1.20428 14.7741 1.62778C14.7741 2.01598 14.4686 2.33681 14.0723 2.38758L13.9621 2.39459H6.09384C3.4363 2.39459 1.72669 4.05653 1.62843 6.64899L1.62395 6.88721V15.1507C1.62395 17.8115 3.23001 19.5306 5.85263 19.6295L6.09384 19.634H15.4089C18.0688 19.634 19.7762 17.9785 19.8744 15.3887L19.8788 15.1507V7.95407C19.8788 7.53058 20.2424 7.18726 20.6908 7.18726C21.1019 7.18726 21.4416 7.47574 21.4954 7.85002L21.5028 7.95407V15.1507C21.5028 18.617 19.1856 21.0522 15.6626 21.1636L15.4089 21.1676H6.09384C2.48801 21.1676 0.112426 18.8262 0.00388351 15.3974L0 15.1507V6.88721C0 3.41922 2.31853 0.976704 5.84025 0.864974L6.09384 0.860974H13.9621ZM16.2531 7.84392C16.5754 8.07972 16.6581 8.49922 16.4642 8.82506L16.3976 8.91972L13.2265 12.7847C12.9757 13.0905 12.5288 13.1678 12.1834 12.9818L12.0831 12.9181L9.03129 10.6545L6.29143 14.018C6.04283 14.3231 5.59891 14.4027 5.25322 14.2206L5.15276 14.1581C4.82965 13.9234 4.74537 13.5041 4.93818 13.1777L5.00437 13.0828L8.24483 9.10548C8.4952 8.79818 8.94321 8.71996 9.28943 8.90622L9.38995 8.97007L12.4427 11.2352L15.1139 7.98041C15.3886 7.64565 15.8986 7.58454 16.2531 7.84392ZM19.4521 0C21.0499 0 22.3451 1.22319 22.3451 2.73207C22.3451 4.24096 21.0499 5.46415 19.4521 5.46415C17.8543 5.46415 16.5591 4.24096 16.5591 2.73207C16.5591 1.22319 17.8543 0 19.4521 0ZM19.4521 1.53361C18.7512 1.53361 18.183 2.07018 18.183 2.73207C18.183 3.39397 18.7512 3.93054 19.4521 3.93054C20.153 3.93054 20.7211 3.39397 20.7211 2.73207C20.7211 2.07018 20.153 1.53361 19.4521 1.53361Z" fill="#A5ADBB"/>
</svg>
