<svg width="24" height="23" viewBox="0 0 24 23" fill="none" xmlns="http://www.w3.org/2000/svg">
<path fill-rule="evenodd" clip-rule="evenodd" d="M4.84739 0H19.1496C21.8283 0 23.997 2.07863 24 4.646V18.354C24 20.9214 21.8283 23 19.1526 23H4.84739C2.16873 23 0 20.9214 0 18.3569V4.646C0 2.07863 2.16873 0 4.84739 0ZM12.3829 4.47919L11.8969 5.28419L11.42 4.47631C11.114 3.97319 10.4511 3.80356 9.92616 4.09106C9.40123 4.38431 9.22425 5.01969 9.52421 5.52281L10.6371 7.37431L7.07352 13.2939H4.28987C3.68394 13.2939 3.198 13.7597 3.198 14.3404C3.198 14.9212 3.68394 15.3869 4.28987 15.3869H14.2186C14.6956 14.5302 14.0806 13.2939 12.9828 13.2939H9.5962L14.2786 5.52569C14.5786 5.02256 14.4016 4.38144 13.8767 4.09394C13.3517 3.80643 12.6828 3.97606 12.3829 4.47919ZM6.63557 18.2102L7.68544 16.4651C7.11851 15.8096 6.4016 15.6083 5.51971 15.8699L4.73981 17.1637C4.43985 17.6668 4.61683 18.3079 5.14176 18.5954C5.6667 18.8829 6.33561 18.7133 6.63557 18.2102ZM19.567 13.2997H16.7263C16.5089 12.9389 16.2998 12.5918 16.099 12.2585C14.9782 10.398 14.1157 8.96622 13.5077 7.96656C12.8628 8.48119 12.2089 9.99919 13.1238 11.5114C13.5206 12.1713 14.0067 12.9779 14.5815 13.9317C15.3015 15.1265 16.1608 16.5524 17.1583 18.2102C17.4642 18.7133 18.1271 18.8829 18.6521 18.5954C19.177 18.3022 19.354 17.6668 19.054 17.1637L17.9892 15.3927H19.567C20.1729 15.3927 20.6588 14.9269 20.6588 14.3462C20.6588 13.7654 20.1729 13.2997 19.567 13.2997Z" fill="white"/>
</svg>
