<svg width="15" height="26" viewBox="0 0 15 26" fill="none" xmlns="http://www.w3.org/2000/svg">
<path d="M14.8011 13.062C14.6299 12.7277 14.3042 12.5192 13.95 12.5192H8.43465V1.04921C8.43465 0.470048 7.99872 0 7.46158 0C6.92445 0 6.48851 0.470048 6.48851 1.04921V12.5192H0.973141C0.617645 12.5192 0.291991 12.7277 0.122028 13.062C-0.0505304 13.3964 -0.0388536 13.8049 0.149274 14.128L6.63772 25.2301C6.81676 25.5351 7.12685 25.7197 7.46158 25.7197C7.79632 25.7197 8.10641 25.5351 8.28545 25.2301L14.7739 14.128C14.8725 13.9573 14.9231 13.7629 14.9231 13.5684C14.9231 13.395 14.8816 13.2201 14.8011 13.062Z" fill="white"/>
</svg>
