<svg width="17" height="17" viewBox="0 0 17 17" fill="none" xmlns="http://www.w3.org/2000/svg">
<g clip-path="url(#clip0)">
<path d="M11.3333 15.5834V12.8422C11.3599 12.5044 11.3142 12.1649 11.1994 11.8461C11.0846 11.5274 10.9033 11.2367 10.6675 10.9934C12.8916 10.7455 15.2291 9.9026 15.2291 6.0351C15.2289 5.04614 14.8485 4.09511 14.1666 3.37885C14.4895 2.51362 14.4667 1.55726 14.1029 0.708432C14.1029 0.708432 13.267 0.460515 11.3333 1.75676C9.7098 1.31676 7.99845 1.31676 6.37496 1.75676C4.44121 0.460515 3.60538 0.708432 3.60538 0.708432C3.24156 1.55726 3.21873 2.51362 3.54163 3.37885C2.85463 4.10043 2.47383 5.06005 2.47913 6.05635C2.47913 9.89551 4.81663 10.7384 7.04079 11.0147C6.80775 11.2555 6.62802 11.5427 6.5133 11.8575C6.39858 12.1724 6.35145 12.5079 6.37496 12.8422V15.5834M6.37496 13.4584C2.83329 14.5209 2.83329 11.6876 1.41663 11.3334L6.37496 13.4584Z" stroke="#FAFAFA" stroke-width="2" stroke-linecap="round" stroke-linejoin="round"/>
</g>
<defs>
<clipPath id="clip0">
<rect width="17" height="17" fill="white"/>
</clipPath>
</defs>
</svg>
