<svg width="14" height="15" viewBox="0 0 14 15" fill="none" xmlns="http://www.w3.org/2000/svg">
<path fill-rule="evenodd" clip-rule="evenodd" d="M7.76481 7.33362L0.542764 0.0168457C0.244463 0.0842426 0 0.345747 0 0.871375V13.8214C0 14.3164 0.192311 14.6645 0.547934 14.6992L7.76481 7.33362ZM8.09129 6.9856L10.0212 5.03079C10.0212 5.03079 1.63462 0.396226 1.13254 0.118783C0.939556 0.0121096 0.729149 -0.0251181 0.542908 0.0168911L8.09129 6.9856ZM8.42316 7.32153L10.601 9.30218C10.601 9.30218 13.0676 7.93461 13.1732 7.876C13.5292 7.67859 13.9023 7.17482 13.1732 6.77215C12.9879 6.66965 10.6123 5.35718 10.6123 5.35718L8.42316 7.32153ZM0.548035 14.6993C0.71101 14.7202 0.90703 14.6765 1.1325 14.5515C1.59928 14.2928 6.61217 11.5134 10.0233 9.62222L8.0913 7.62622L0.548035 14.6993Z" fill="white"/>
</svg>
