<svg width="25" height="25" viewBox="0 0 25 25" fill="none" xmlns="http://www.w3.org/2000/svg">
<path fill-rule="evenodd" clip-rule="evenodd" d="M12.75 24.5C5.98451 24.5 0.5 19.0155 0.5 12.25C0.5 5.48451 5.98451 0 12.75 0C19.5155 0 25 5.48451 25 12.25C25 19.0155 19.5155 24.5 12.75 24.5ZM15.3682 12.3865L7.99573 4.91725C7.69121 4.98605 7.44165 5.253 7.44165 5.78958V19.0094C7.44165 19.5147 7.63797 19.8701 8.001 19.9055L15.3682 12.3865ZM15.7015 12.0312L17.6716 10.0356C17.6716 10.0356 9.11033 5.30453 8.59779 5.02131C8.40078 4.91241 8.18599 4.87441 7.99587 4.91729L15.7015 12.0312ZM16.0403 12.3741L18.2635 14.396C18.2635 14.396 20.7815 13 20.8892 12.9401C21.2527 12.7386 21.6336 12.2243 20.8892 11.8133C20.7002 11.7087 18.275 10.3688 18.275 10.3688L16.0403 12.3741ZM8.00111 19.9056C8.16748 19.927 8.36758 19.8823 8.59775 19.7547C9.07425 19.4906 14.1916 16.6533 17.6738 14.7227L15.7015 12.6852L8.00111 19.9056Z" fill="white"/>
</svg>
