<svg width="24" height="24" viewBox="0 0 24 24" fill="none" xmlns="http://www.w3.org/2000/svg">
<path d="M12 0C18.6274 0 24 5.37258 24 12C24 18.6274 18.6274 24 12 24C5.37258 24 0 18.6274 0 12C0 5.37258 5.37258 0 12 0ZM12 1.73729C6.33206 1.73729 1.73729 6.33206 1.73729 12C1.73729 17.6679 6.33206 22.2627 12 22.2627C17.6679 22.2627 22.2627 17.6679 22.2627 12C22.2627 6.33206 17.6679 1.73729 12 1.73729ZM15.61 7.30153C16.2792 7.09213 16.9079 7.72085 16.6985 8.38996L14.8538 14.2843C14.7688 14.556 14.556 14.7688 14.2843 14.8538L8.38996 16.6985C7.72085 16.9079 7.09213 16.2792 7.30153 15.61L9.14616 9.71572C9.23119 9.44399 9.44399 9.23119 9.71572 9.14616L15.61 7.30153ZM14.5445 9.45428L10.6681 10.6681L9.45428 14.5445L13.3307 13.3307L14.5445 9.45428Z" fill="#616161"/>
</svg>
