<svg width="15" height="20" viewBox="0 0 15 20" fill="none" xmlns="http://www.w3.org/2000/svg">
<path fill-rule="evenodd" clip-rule="evenodd" d="M14.7866 3.94276L11.3824 0.553849C11.319 0.490586 11.2435 0.440586 11.1604 0.40679C11.0783 0.373391 10.9904 0.356116 10.9017 0.355957H2.05061C0.922538 0.355957 0.00805664 1.26631 0.00805664 2.38929V17.3004C0.00805664 18.4234 0.922538 19.3337 2.05061 19.3337H12.9442C14.0723 19.3337 14.9868 18.4234 14.9868 17.3004V4.42262C14.9858 4.24272 14.9139 4.0704 14.7866 3.94276ZM11.5824 2.66998L12.6622 3.74495H11.5824V2.66998ZM12.9441 17.9781C13.3201 17.9781 13.6249 17.6746 13.6249 17.3003H13.625V5.10028H10.9016C10.5255 5.10028 10.2207 4.79683 10.2207 4.42249V1.71137H2.05048C1.67444 1.71137 1.36961 2.01482 1.36961 2.38916V17.3003C1.36961 17.6746 1.67444 17.9781 2.05048 17.9781H12.9441Z" fill="white"/>
</svg>
