<svg width="21" height="21" viewBox="0 0 21 21" fill="none" xmlns="http://www.w3.org/2000/svg">
<path d="M20.125 7.86459L18.1563 7.20834L19.0833 5.35417C19.1773 5.16009 19.2087 4.94163 19.1733 4.72893C19.1378 4.51623 19.0373 4.31978 18.8854 4.16667L16.6667 1.94792C16.5127 1.79384 16.3144 1.69189 16.0995 1.65638C15.8847 1.62088 15.6641 1.65362 15.4688 1.75L13.6146 2.67709L12.9583 0.708337C12.889 0.50312 12.7575 0.324614 12.582 0.197658C12.4065 0.0707018 12.1958 0.00161216 11.9792 3.47243e-06H8.85417C8.63579 -0.000560238 8.42276 0.0675232 8.24518 0.194631C8.06761 0.321738 7.93447 0.50144 7.86459 0.708337L7.20834 2.67709L5.35417 1.75C5.16009 1.65602 4.94163 1.62459 4.72893 1.66004C4.51623 1.69549 4.31978 1.79608 4.16667 1.94792L1.94792 4.16667C1.79384 4.32059 1.69189 4.51894 1.65638 4.73381C1.62088 4.94869 1.65362 5.16928 1.75 5.36459L2.67709 7.21875L0.708337 7.875C0.50312 7.94431 0.324614 8.07587 0.197658 8.25136C0.0707018 8.42686 0.00161216 8.63757 3.47243e-06 8.85417V11.9792C-0.000560238 12.1975 0.0675232 12.4106 0.194631 12.5882C0.321738 12.7657 0.50144 12.8989 0.708337 12.9688L2.67709 13.625L1.75 15.4792C1.65602 15.6732 1.62459 15.8917 1.66004 16.1044C1.69549 16.3171 1.79608 16.5136 1.94792 16.6667L4.16667 18.8854C4.32059 19.0395 4.51894 19.1415 4.73381 19.177C4.94869 19.2125 5.16928 19.1797 5.36459 19.0833L7.21875 18.1563L7.875 20.125C7.94488 20.3319 8.07802 20.5116 8.2556 20.6387C8.43317 20.7658 8.64621 20.8339 8.86459 20.8333H11.9896C12.208 20.8339 12.421 20.7658 12.5986 20.6387C12.7762 20.5116 12.9093 20.3319 12.9792 20.125L13.6354 18.1563L15.4896 19.0833C15.6824 19.1749 15.8988 19.2051 16.1093 19.1697C16.3198 19.1343 16.5144 19.0351 16.6667 18.8854L18.8854 16.6667C19.0395 16.5127 19.1415 16.3144 19.177 16.0995C19.2125 15.8847 19.1797 15.6641 19.0833 15.4688L18.1563 13.6146L20.125 12.9583C20.3302 12.889 20.5087 12.7575 20.6357 12.582C20.7626 12.4065 20.8317 12.1958 20.8333 11.9792V8.85417C20.8339 8.63579 20.7658 8.42276 20.6387 8.24518C20.5116 8.06761 20.3319 7.93447 20.125 7.86459ZM18.75 11.2292L17.5 11.6458C17.2126 11.7391 16.9488 11.8937 16.7271 12.0991C16.5054 12.3044 16.3311 12.5555 16.2161 12.835C16.1012 13.1144 16.0484 13.4156 16.0614 13.7175C16.0745 14.0194 16.153 14.3148 16.2917 14.5833L16.8854 15.7708L15.7396 16.9167L14.5833 16.2917C14.3162 16.1586 14.0236 16.0844 13.7253 16.0743C13.4271 16.0641 13.1301 16.1181 12.8545 16.2327C12.5789 16.3473 12.3312 16.5197 12.128 16.7384C11.9249 16.957 11.7711 17.2168 11.6771 17.5L11.2604 18.75H9.60417L9.1875 17.5C9.09426 17.2126 8.93961 16.9488 8.73427 16.7271C8.52893 16.5054 8.27782 16.3311 7.99836 16.2161C7.71889 16.1012 7.41777 16.0484 7.11586 16.0614C6.81396 16.0745 6.51851 16.153 6.25 16.2917L5.0625 16.8854L3.91667 15.7396L4.54167 14.5833C4.68031 14.3148 4.75888 14.0194 4.77193 13.7175C4.78497 13.4156 4.73219 13.1144 4.61723 12.835C4.50227 12.5555 4.3279 12.3044 4.1062 12.0991C3.8845 11.8937 3.62078 11.7391 3.33334 11.6458L2.08334 11.2292V9.60417L3.33334 9.1875C3.62078 9.09426 3.8845 8.93961 4.1062 8.73427C4.3279 8.52893 4.50227 8.27782 4.61723 7.99836C4.73219 7.71889 4.78497 7.41777 4.77193 7.11586C4.75888 6.81396 4.68031 6.51851 4.54167 6.25L3.94792 5.09375L5.09375 3.94792L6.25 4.54167C6.51851 4.68031 6.81396 4.75888 7.11586 4.77193C7.41777 4.78497 7.71889 4.73219 7.99836 4.61723C8.27782 4.50227 8.52893 4.3279 8.73427 4.1062C8.93961 3.8845 9.09426 3.62078 9.1875 3.33334L9.60417 2.08334H11.2292L11.6458 3.33334C11.7391 3.62078 11.8937 3.8845 12.0991 4.1062C12.3044 4.3279 12.5555 4.50227 12.835 4.61723C13.1144 4.73219 13.4156 4.78497 13.7175 4.77193C14.0194 4.75888 14.3148 4.68031 14.5833 4.54167L15.7708 3.94792L16.9167 5.09375L16.2917 6.25C16.1586 6.51713 16.0844 6.80974 16.0743 7.10801C16.0641 7.40629 16.1181 7.70326 16.2327 7.97884C16.3473 8.25442 16.5197 8.50216 16.7384 8.70529C16.957 8.90843 17.2168 9.06222 17.5 9.15625L18.75 9.57292V11.2292ZM10.4167 6.25C9.59258 6.25 8.787 6.49437 8.10179 6.95221C7.41659 7.41005 6.88254 8.0608 6.56717 8.82215C6.25181 9.58351 6.16929 10.4213 6.33006 11.2295C6.49084 12.0378 6.88767 12.7802 7.47039 13.3629C8.05311 13.9457 8.79554 14.3425 9.60379 14.5033C10.412 14.664 11.2498 14.5815 12.0112 14.2662C12.7725 13.9508 13.4233 13.4167 13.8811 12.7315C14.339 12.0463 14.5833 11.2408 14.5833 10.4167C14.5833 9.3116 14.1443 8.25179 13.3629 7.47039C12.5815 6.68899 11.5217 6.25 10.4167 6.25ZM10.4167 12.5C10.0046 12.5 9.60183 12.3778 9.25923 12.1489C8.91663 11.92 8.6496 11.5946 8.49192 11.2139C8.33424 10.8332 8.29298 10.4144 8.37337 10.0102C8.45375 9.6061 8.65217 9.23489 8.94353 8.94353C9.23489 8.65217 9.6061 8.45375 10.0102 8.37337C10.4144 8.29298 10.8332 8.33424 11.2139 8.49192C11.5946 8.6496 11.92 8.91663 12.1489 9.25923C12.3778 9.60183 12.5 10.0046 12.5 10.4167C12.5 10.9692 12.2805 11.4991 11.8898 11.8898C11.4991 12.2805 10.9692 12.5 10.4167 12.5Z" fill="#A5ADBB"/>
</svg>
