<svg width="23" height="22" viewBox="0 0 23 22" fill="none" xmlns="http://www.w3.org/2000/svg">
<path d="M7.08168 0.000630796C7.46602 -0.0169696 7.866 0.336138 7.86935 0.759647C7.87271 1.09845 8.15538 1.37236 8.49838 1.37236H9.63241C11.2413 1.37236 12.5664 2.65829 12.5876 4.25002V4.51403H15.7696C19.3258 4.48543 22.1894 7.08478 22.3391 10.4696C22.3447 10.6027 22.3458 10.7391 22.3436 10.8744V15.6155C22.4195 19.0343 19.6443 21.89 16.1561 21.9659C16.0131 21.9692 15.8779 21.9659 15.7416 21.9604C14.202 21.9868 12.6535 22 11.1128 22C9.58101 22 8.05706 21.9868 6.55768 21.9615C3.11761 22.1056 0.159081 19.4391 0.00601561 16.0082C-0.000688006 15.8729 -0.000688006 15.7365 0.00154653 15.6001V10.8568C-0.0353233 9.21003 0.588113 7.63259 1.75789 6.43027C2.92656 5.22684 4.50079 4.54483 6.19122 4.50963C6.32864 4.50523 6.46942 4.50633 6.61019 4.51513L11.029 4.51403V4.25992C11.0189 3.51631 10.391 2.90799 9.62682 2.90799H8.49167C7.3029 2.90799 6.32417 1.95427 6.31076 0.776147C6.3063 0.351538 6.65265 0.00503089 7.08168 0.000630796ZM6.33121 6.04311L6.22809 6.04416C4.95105 6.07166 3.76451 6.58427 2.8841 7.49179C2.00146 8.39711 1.53221 9.58623 1.56014 10.8414V15.6155C1.5579 15.7343 1.55896 15.8377 1.56349 15.9389C1.67857 18.5272 3.88853 20.5513 6.53645 20.427C9.57431 20.4776 12.6613 20.4776 15.7606 20.4259C15.9126 20.4325 16.0198 20.4336 16.126 20.4303C18.7504 20.3753 20.8431 18.2225 20.785 15.6331V10.8568C20.7872 10.7413 20.7862 10.639 20.7816 10.5367C20.6688 7.9648 18.5583 6.04636 15.8601 6.04636C15.8333 6.04636 15.8109 6.04856 15.7752 6.04856H6.57221C6.43143 6.0431 6.32976 6.04196 6.22809 6.04416L6.33121 6.04311ZM7.90991 10.544C8.32634 10.544 8.6705 10.8435 8.72497 11.2322L8.73248 11.3402L8.73146 12.4578L9.88758 12.4584C10.3419 12.4584 10.7101 12.8149 10.7101 13.2547C10.7101 13.6578 10.4007 13.991 9.9992 14.0437L9.88758 14.051L8.73146 14.0506L8.73248 15.1691C8.73248 15.6089 8.3642 15.9654 7.90991 15.9654C7.49348 15.9654 7.14932 15.6659 7.09486 15.2772L7.08735 15.1691L7.08684 14.0506L5.93224 14.051C5.47795 14.051 5.10968 13.6945 5.10968 13.2547C5.10968 12.8516 5.41913 12.5184 5.82063 12.4657L5.93224 12.4584L7.08684 12.4578L7.08735 11.3402C7.08735 10.9005 7.45562 10.544 7.90991 10.544ZM16.5333 14.3146C16.9876 14.3146 17.3559 14.6711 17.3559 15.1108C17.3559 15.514 17.0465 15.8471 16.645 15.8998L16.5333 15.9071H16.4229C15.9686 15.9071 15.6004 15.5506 15.6004 15.1108C15.6004 14.7077 15.9098 14.3746 16.3113 14.3218L16.4229 14.3146H16.5333ZM14.6561 10.6606C15.1104 10.6606 15.4786 11.0171 15.4786 11.4568C15.4786 11.86 15.1692 12.1931 14.7677 12.2458L14.6561 12.2531H14.5456C14.0913 12.2531 13.7231 11.8966 13.7231 11.4568C13.7231 11.0537 14.0325 10.7206 14.434 10.6678L14.5456 10.6606H14.6561Z" fill="#A5ADBB"/>
</svg>
