<svg width="25" height="25" viewBox="0 0 25 25" fill="none" xmlns="http://www.w3.org/2000/svg">
<path fill-rule="evenodd" clip-rule="evenodd" d="M12.879 0.5C6.2524 0.5 0.878906 6.00832 0.878906 12.8037C0.878906 18.2399 4.3173 22.8519 9.08531 24.4789C9.68503 24.5927 9.90521 24.2119 9.90521 23.887C9.90521 23.5936 9.89408 22.6243 9.88892 21.5962C6.55048 22.3405 5.84603 20.1445 5.84603 20.1445C5.30015 18.7224 4.51363 18.3442 4.51363 18.3442C3.42486 17.5806 4.5957 17.5963 4.5957 17.5963C5.80072 17.6829 6.43522 18.8642 6.43522 18.8642C7.50551 20.7452 9.24249 20.2014 9.92727 19.887C10.035 19.092 10.346 18.5488 10.6891 18.2417C8.02376 17.9306 5.22186 16.8756 5.22186 12.1611C5.22186 10.8178 5.69063 9.72019 6.45827 8.85854C6.33368 8.54844 5.92293 7.29722 6.57452 5.60245C6.57452 5.60245 7.58221 5.27177 9.8754 6.86365C10.8326 6.59104 11.8592 6.45432 12.879 6.44963C13.8988 6.45432 14.9262 6.59104 15.8852 6.86365C18.1756 5.27177 19.1819 5.60245 19.1819 5.60245C19.8351 7.29722 19.4241 8.54844 19.2995 8.85854C20.069 9.72019 20.5346 10.8178 20.5346 12.1611C20.5346 16.8868 17.7273 17.9273 15.0552 18.232C15.4856 18.6138 15.8691 19.3625 15.8691 20.5105C15.8691 22.1565 15.8552 23.4815 15.8552 23.887C15.8552 24.2144 16.0712 24.598 16.6795 24.4772C21.4449 22.8485 24.8789 18.2381 24.8789 12.8037C24.8789 6.00832 19.5062 0.5 12.879 0.5Z" fill="white"/>
<path fill-rule="evenodd" clip-rule="evenodd" d="M5.42395 18.1655C5.39752 18.2269 5.30373 18.245 5.21828 18.203C5.13124 18.1629 5.08236 18.0795 5.11058 18.0182C5.13641 17.9553 5.2304 17.9379 5.31724 17.9797C5.40448 18.0201 5.45416 18.1042 5.42395 18.1655Z" fill="white"/>
<path fill-rule="evenodd" clip-rule="evenodd" d="M5.91001 18.7214C5.85278 18.7758 5.74091 18.7505 5.665 18.6645C5.5865 18.5787 5.5718 18.464 5.62982 18.4088C5.68884 18.3544 5.79734 18.3799 5.87603 18.4656C5.95453 18.5524 5.96983 18.6663 5.91001 18.7214Z" fill="white"/>
<path fill-rule="evenodd" clip-rule="evenodd" d="M6.38316 19.43C6.30963 19.4824 6.18941 19.4332 6.11509 19.3238C6.04156 19.2144 6.04156 19.0832 6.11668 19.0306C6.1912 18.9781 6.30963 19.0253 6.38495 19.1339C6.45827 19.245 6.45827 19.3764 6.38316 19.43Z" fill="white"/>
<path fill-rule="evenodd" clip-rule="evenodd" d="M7.03137 20.1146C6.9656 20.1889 6.8255 20.169 6.72296 20.0675C6.61804 19.9683 6.58883 19.8275 6.6548 19.7531C6.72137 19.6786 6.86226 19.6995 6.9656 19.8002C7.06972 19.8992 7.10152 20.041 7.03137 20.1146Z" fill="white"/>
<path fill-rule="evenodd" clip-rule="evenodd" d="M7.9256 20.5121C7.89658 20.6085 7.76165 20.6523 7.62573 20.6113C7.49001 20.5691 7.40118 20.4563 7.42861 20.3589C7.45682 20.2619 7.59235 20.2162 7.72926 20.2601C7.86479 20.302 7.95381 20.4141 7.9256 20.5121Z" fill="white"/>
<path fill-rule="evenodd" clip-rule="evenodd" d="M8.90765 20.5858C8.91103 20.6873 8.79578 20.7715 8.6531 20.7731C8.50962 20.7766 8.39357 20.6944 8.39198 20.5946C8.39198 20.4921 8.50466 20.4088 8.64813 20.4063C8.79081 20.4035 8.90765 20.485 8.90765 20.5858Z" fill="white"/>
<path fill-rule="evenodd" clip-rule="evenodd" d="M9.82155 20.4263C9.83864 20.5253 9.73948 20.627 9.5978 20.6539C9.4585 20.6802 9.32953 20.6191 9.31184 20.5209C9.29455 20.4194 9.3955 20.3177 9.53461 20.2914C9.67649 20.2662 9.80347 20.3257 9.82155 20.4263Z" fill="white"/>
</svg>
