<svg width="21" height="20" viewBox="0 0 21 20" fill="none" xmlns="http://www.w3.org/2000/svg">
<g clip-path="url(#clip0)">
<path d="M13.8333 18.3334V15.1084C13.8646 14.711 13.8109 14.3115 13.6758 13.9365C13.5407 13.5615 13.3274 13.2195 13.05 12.9334C15.6666 12.6417 18.4166 11.65 18.4166 7.10003C18.4164 5.93655 17.9689 4.8177 17.1666 3.97503C17.5465 2.95712 17.5196 1.83199 17.0916 0.833363C17.0916 0.833363 16.1083 0.541696 13.8333 2.0667C11.9233 1.54905 9.90995 1.54905 7.99996 2.0667C5.72496 0.541696 4.74163 0.833363 4.74163 0.833363C4.31361 1.83199 4.28675 2.95712 4.66663 3.97503C3.8584 4.82395 3.41039 5.95292 3.41663 7.12503C3.41663 11.6417 6.16663 12.6334 8.78329 12.9584C8.50912 13.2417 8.29768 13.5795 8.16272 13.95C8.02775 14.3204 7.9723 14.7151 7.99996 15.1084V18.3334M7.99996 15.8334C3.83329 17.0834 3.83329 13.75 2.16663 13.3334L7.99996 15.8334Z" stroke="#FAFAFA" stroke-width="2" stroke-linecap="round" stroke-linejoin="round"/>
</g>
<defs>
<clipPath id="clip0">
<rect width="20" height="20" fill="white" transform="translate(0.5)"/>
</clipPath>
</defs>
</svg>
