<svg width="22" height="22" viewBox="0 0 22 22" fill="none" xmlns="http://www.w3.org/2000/svg">
<path d="M9.34753 5.20741C9.444 5.39801 9.50199 5.60483 9.51865 5.82043L9.94604 11.824C9.95176 11.9063 9.99096 11.983 10.0549 12.037C10.1029 12.0776 10.1619 12.1029 10.2278 12.1103L10.2959 12.1116L16.4275 11.7443C16.9254 11.7152 17.4136 11.8875 17.7764 12.2204C18.1393 12.5534 18.3445 13.0174 18.3419 13.5541C18.0692 17.5057 15.1503 20.8091 11.1749 21.6654C7.19953 22.5217 3.11972 20.7257 1.1636 17.2663C0.640522 16.3745 0.287956 15.399 0.125178 14.4114L0.0730695 14.0406C0.0278325 13.7629 0.00350925 13.4826 0 13.2133L0.00342506 12.9482C0.0147382 8.82245 2.92772 5.25491 7.0269 4.29266L7.30821 4.23111L7.45954 4.20622C8.2522 4.09846 9.03207 4.51164 9.34753 5.20741ZM7.71807 5.77351L7.62538 5.784L7.37406 5.84046C4.10879 6.62305 1.76682 9.41843 1.63676 12.7117L1.63108 12.9798C1.62326 13.1837 1.63075 13.3879 1.65549 13.6051L1.68605 13.8272C1.79533 14.7616 2.09874 15.6647 2.58406 16.4923C4.19796 19.3463 7.55336 20.8234 10.8229 20.1191C14.0924 19.4149 16.493 16.698 16.7154 13.4997C16.7154 13.4515 16.6951 13.4055 16.6591 13.3724C16.6351 13.3504 16.6055 13.3354 16.5742 13.3287L16.5264 13.3251L10.4049 13.6917C9.88832 13.7282 9.37804 13.563 8.98703 13.2325C8.59602 12.9021 8.35652 12.4337 8.32174 11.934L7.89472 5.93544C7.89396 5.92551 7.89124 5.91581 7.87251 5.87727C7.84465 5.81597 7.78413 5.77699 7.71807 5.77351ZM12.5653 0.00114891C17.2793 0.133745 21.2331 3.50211 21.9895 8.02982L22 8.15655L21.9975 8.37734C21.9711 8.70294 21.8391 9.01262 21.6199 9.26142C21.3446 9.57387 20.9525 9.76662 20.5247 9.79737L13.2147 10.2714C12.2776 10.324 11.4724 9.63149 11.4115 8.72183L10.9228 1.58515L10.9284 1.42524L10.9527 1.24507C11.0179 0.925609 11.1853 0.633756 11.4317 0.411758C11.7413 0.132974 12.1521 -0.0146479 12.5653 0.00114891ZM12.5524 1.58502L13.0362 8.61754C13.0391 8.66026 13.0768 8.69274 13.1136 8.6907L20.3701 8.21871L20.334 8.0218C19.6149 4.46315 16.5131 1.82064 12.7916 1.59629L12.5524 1.58502Z" fill="#A5ADBB"/>
</svg>
