<svg width="30" height="25" viewBox="0 0 30 25" fill="none" xmlns="http://www.w3.org/2000/svg">
<path d="M14.9936 15.4679L15.4091 15.4699C21.0287 15.5247 24.2221 16.7152 24.2221 20.0084C24.2221 23.224 21.1696 24.4553 15.8141 24.5653L14.9936 24.5735C9.11538 24.5735 5.76496 23.4066 5.76496 20.033C5.76496 16.6556 9.12882 15.4679 14.9936 15.4679ZM14.9936 17.5912C10.2411 17.5912 7.8095 18.4498 7.8095 20.033C7.8095 21.6052 10.2357 22.4502 14.9936 22.4502C19.7446 22.4502 22.1776 21.5909 22.1776 20.0084C22.1776 18.4363 19.7507 17.5912 14.9936 17.5912ZM24.5932 14.586C25.3045 14.6369 26.0039 14.7418 26.6584 14.8952C28.1155 15.1914 29.2106 15.7588 29.7192 16.8657C30.0936 17.6834 30.0936 18.6342 29.7192 19.4541C29.2141 20.5568 28.1376 21.1164 26.6679 21.4303C26.1149 21.5484 25.5744 21.1785 25.4607 20.6042C25.347 20.0299 25.7031 19.4686 26.2561 19.3505C27.1453 19.1606 27.7284 18.8575 27.8724 18.5431C27.9832 18.3005 27.9832 18.0186 27.8734 17.7789C27.7275 17.4613 27.1395 17.1566 26.2376 16.9728C25.6576 16.8373 25.0612 16.7479 24.4526 16.7043C23.8893 16.6639 23.4642 16.157 23.5031 15.5721C23.5419 14.9871 24.03 14.5456 24.5932 14.586ZM6.49679 15.5721C6.53563 16.157 6.11052 16.6639 5.54727 16.7043C5.09081 16.737 4.64119 16.7954 4.18841 16.8824L3.73421 16.979C2.86068 17.1566 2.27327 17.461 2.12744 17.7794C2.01697 18.0194 2.01697 18.2996 2.12882 18.5433C2.27238 18.8577 2.8549 19.1607 3.74371 19.3505C4.29673 19.4686 4.65284 20.0299 4.53913 20.6042C4.42541 21.1785 3.88492 21.5484 3.3319 21.4303C1.86168 21.1163 0.785199 20.5565 0.282344 19.455C-0.0940486 18.6351 -0.0940487 17.6826 0.281948 16.8656C0.754935 15.8329 1.74034 15.2696 3.03197 14.9631L3.31336 14.9013C3.99593 14.7418 4.69539 14.6369 5.40661 14.586C5.96985 14.5456 6.45794 14.9871 6.49679 15.5721ZM14.9936 0.573486C18.4768 0.573486 21.2747 3.47917 21.2747 7.09666C21.2747 10.7152 18.4771 13.6211 14.9936 13.6211C11.51 13.6211 8.71239 10.7152 8.71239 7.09666C8.71239 3.47917 11.5103 0.573486 14.9936 0.573486ZM22.7044 1.90675C25.4531 1.90675 27.6823 4.22088 27.6823 7.07525C27.6823 9.92961 25.4531 12.2437 22.7044 12.2437C22.1398 12.2437 21.6821 11.7684 21.6821 11.1821C21.6821 10.5958 22.1398 10.1204 22.7044 10.1204C24.3241 10.1204 25.6378 8.75673 25.6378 7.07525C25.6378 5.39377 24.3241 4.03006 22.7044 4.03006C22.1398 4.03006 21.6821 3.55474 21.6821 2.96841C21.6821 2.38207 22.1398 1.90675 22.7044 1.90675ZM7.2955 1.90675C7.86008 1.90675 8.31777 2.38207 8.31777 2.96841C8.31777 3.55474 7.86008 4.03006 7.2955 4.03006C5.67572 4.03006 4.36204 5.39377 4.36204 7.07525C4.36204 8.75673 5.67572 10.1204 7.2955 10.1204C7.86008 10.1204 8.31777 10.5958 8.31777 11.1821C8.31777 11.7684 7.86008 12.2437 7.2955 12.2437C4.54676 12.2437 2.3175 9.92961 2.3175 7.07525C2.3175 4.22088 4.54676 1.90675 7.2955 1.90675ZM14.9936 2.6968C12.6394 2.6968 10.7569 4.65185 10.7569 7.09666C10.7569 9.54261 12.6393 11.4978 14.9936 11.4978C17.3478 11.4978 19.2302 9.54261 19.2302 7.09666C19.2302 4.65185 17.3477 2.6968 14.9936 2.6968Z" fill="#616161"/>
</svg>
