<svg width="16" height="16" viewBox="0 0 16 16" fill="none" xmlns="http://www.w3.org/2000/svg">
<path fill-rule="evenodd" clip-rule="evenodd" d="M3.79344 5.56469H0.629126V15.0721H3.79344V5.56469ZM4.00185 2.62366C3.98131 1.69146 3.31469 0.981445 2.2322 0.981445C1.14971 0.981445 0.442017 1.69146 0.442017 2.62366C0.442017 3.53655 1.1288 4.26702 2.19113 4.26702H2.21135C3.31469 4.26702 4.00185 3.53655 4.00185 2.62366ZM15.2052 9.62086C15.2052 6.70058 13.6441 5.34144 11.5618 5.34144C9.8818 5.34144 9.12962 6.26423 8.70964 6.91159V5.56494H5.54495C5.58666 6.45707 5.54495 15.0724 5.54495 15.0724H8.70964V9.76265C8.70964 9.4785 8.73018 9.19505 8.81385 8.99161C9.04254 8.42395 9.56325 7.83622 10.4375 7.83622C11.583 7.83622 12.0408 8.70803 12.0408 9.98565V15.0721H15.205L15.2052 9.62086Z" fill="#A5ADBB"/>
</svg>
