<svg width="25" height="25" viewBox="0 0 25 25" fill="none" xmlns="http://www.w3.org/2000/svg">
<path fill-rule="evenodd" clip-rule="evenodd" d="M0.878906 12.5C0.878906 5.87258 6.25149 0.5 12.8789 0.5C19.5063 0.5 24.8789 5.87258 24.8789 12.5C24.8789 19.1274 19.5063 24.5 12.8789 24.5C6.25149 24.5 0.878906 19.1274 0.878906 12.5ZM9.3592 10.4389H6.63974V18.6098H9.3592V10.4389ZM9.5383 7.91135C9.52065 7.11021 8.94775 6.50001 8.01743 6.50001C7.08712 6.50001 6.47892 7.11021 6.47892 7.91135C6.47892 8.69591 7.06915 9.32368 7.98213 9.32368H7.99951C8.94775 9.32368 9.5383 8.69591 9.5383 7.91135ZM19.1666 13.9249C19.1666 11.4151 17.825 10.2471 16.0355 10.2471C14.5916 10.2471 13.9452 11.0401 13.5843 11.5965V10.4391H10.8645C10.9003 11.2058 10.8645 18.61 10.8645 18.61H13.5843V14.0467C13.5843 13.8025 13.6019 13.5589 13.6738 13.3841C13.8704 12.8962 14.3179 12.3911 15.0692 12.3911C16.0536 12.3911 16.4471 13.1404 16.4471 14.2384V18.6098H19.1665L19.1666 13.9249Z" fill="white"/>
</svg>
