<svg width="25" height="24" viewBox="0 0 25 24" fill="none" xmlns="http://www.w3.org/2000/svg">
<path fill-rule="evenodd" clip-rule="evenodd" d="M12.8789 24C6.25149 24 0.878906 18.6274 0.878906 12C0.878906 5.37258 6.25149 0 12.8789 0C19.5063 0 24.8789 5.37258 24.8789 12C24.8789 18.6274 19.5063 24 12.8789 24ZM18.9109 13.3588C19.0035 12.9418 19.0516 12.5101 19.0516 12.0664C19.0516 8.74269 16.319 6.04737 12.9466 6.04737C12.5914 6.04737 12.243 6.07778 11.9028 6.13565C11.3572 5.7966 10.7115 5.6 10.0198 5.6C8.06385 5.6 6.47891 7.16244 6.47891 9.09138C6.47891 9.73535 6.65652 10.3378 6.96508 10.8571C6.88455 11.2473 6.84165 11.6524 6.84165 12.0664C6.84165 15.3916 9.57505 18.0862 12.9466 18.0862C13.329 18.0862 13.7022 18.0513 14.065 17.9853C14.5639 18.2494 15.1329 18.4 15.7387 18.4C17.694 18.4 19.2789 16.8368 19.2789 14.9094C19.2789 14.3522 19.1465 13.8262 18.9109 13.3588Z" fill="white"/>
<path fill-rule="evenodd" clip-rule="evenodd" d="M16.2027 15.338C15.9204 15.7327 15.5035 16.0443 14.9616 16.2654C14.4266 16.485 13.7853 16.5971 13.0546 16.5971C12.1778 16.5971 11.4425 16.445 10.8683 16.1445C10.4582 15.9264 10.1202 15.6311 9.86362 15.2646C9.60397 14.8966 9.47302 14.5309 9.47302 14.177C9.47302 13.9574 9.55882 13.766 9.7274 13.6094C9.89447 13.4536 10.109 13.3757 10.3648 13.3757C10.5741 13.3757 10.7554 13.4373 10.9022 13.5597C11.0429 13.6777 11.1633 13.852 11.2604 14.0753C11.3688 14.3202 11.4862 14.5264 11.6104 14.6874C11.7308 14.8447 11.9031 14.976 12.1229 15.0791C12.3441 15.1815 12.6429 15.2349 13.0094 15.2349C13.5144 15.2349 13.9283 15.1281 14.2392 14.9189C14.544 14.7149 14.6915 14.4685 14.6915 14.1673C14.6915 13.9307 14.6139 13.7437 14.4559 13.5968C14.2888 13.444 14.0698 13.3253 13.8042 13.2422C13.5265 13.1576 13.1502 13.0649 12.6843 12.9684C12.0499 12.8349 11.5118 12.6769 11.0843 12.4966C10.6463 12.3133 10.2933 12.0589 10.0352 11.7406C9.7733 11.4164 9.6401 11.0105 9.6401 10.5335C9.6401 10.0795 9.77933 9.66919 10.0548 9.31605C10.3272 8.96513 10.7261 8.69063 11.2401 8.50441C11.7466 8.31968 12.3487 8.2262 13.0313 8.2262C13.5761 8.2262 14.0555 8.28852 14.4559 8.41167C14.8585 8.53483 15.1972 8.70101 15.4636 8.90652C15.7323 9.11425 15.9325 9.33459 16.0574 9.56458C16.1838 9.7968 16.2486 10.0275 16.2486 10.2508C16.2486 10.466 16.1643 10.6619 15.998 10.8317C15.8309 11.0039 15.6194 11.0907 15.371 11.0907C15.1453 11.0907 14.9677 11.0358 14.8457 10.9289C14.7313 10.8288 14.6124 10.673 14.4807 10.4504C14.3287 10.1655 14.1443 9.94073 13.9329 9.78196C13.7274 9.62765 13.385 9.55049 12.9131 9.55049C12.4766 9.55049 12.1199 9.63655 11.8557 9.80793C11.6013 9.97189 11.4772 10.1611 11.4772 10.3851C11.4772 10.5216 11.517 10.6366 11.5998 10.7346C11.6856 10.8399 11.8083 10.9304 11.9633 11.0076C12.1236 11.087 12.2892 11.1508 12.4548 11.1953C12.6241 11.242 12.9086 11.311 13.2992 11.4C13.7936 11.5039 14.2474 11.6219 14.6486 11.7487C15.0557 11.8763 15.4064 12.0336 15.6939 12.2184C15.9859 12.4061 16.217 12.6464 16.3818 12.9343C16.5466 13.2244 16.6301 13.5805 16.6301 13.9952C16.6301 14.4908 16.4856 14.9426 16.2027 15.338Z" fill="white"/>
</svg>
