<svg width="17" height="17" viewBox="0 0 17 17" fill="none" xmlns="http://www.w3.org/2000/svg">
<path d="M8.1 12.8C5.4 12.8 4.19998 11.4 4.19998 10.4C4.19998 10.2 4.30002 9.9 4.50002 9.8C4.70002 9.6 4.9 9.6 5.1 9.6C6.2 9.6 5.9 11.3 8.1 11.3C9.2 11.3 9.80001 10.6 9.80001 10C9.80001 9.6 9.59999 9.2 8.89999 9L6.50002 8.4C4.60002 7.9 4.30001 6.8 4.30001 5.9C4.30001 3.8 6.20002 3.1 8.00002 3.1C9.60003 3.1 11.6 4 11.6 5.2C11.6 5.7 11.2 6 10.6 6C9.6 6 9.80001 4.6 7.80001 4.6C6.80001 4.6 6.30001 5.1 6.30001 5.7C6.30001 6.3 7.09998 6.6 7.69998 6.7L9.50002 7.1C11.4 7.5 11.9 8.7 11.9 9.7C11.9 11.6 10.6 12.8 8.1 12.8ZM15.5 9.3C15.6 8.9 15.6 8.4 15.6 8C15.6 5.8 14.6 3.7 12.9 2.2C11.2 0.7 8.89998 0.2 6.69998 0.5C6.09998 0.2 5.30002 0 4.50002 0C2.90002 0 1.4 0.9 0.6 2.3C-0.2 3.7 -0.2 5.4 0.6 6.8C0.2 9.2 0.899976 11.7 2.69998 13.5C4.39998 15.2 6.90001 16 9.30001 15.6C10 16 10.7 16.2 11.5 16.2C13.1 16.2 14.6 15.3 15.4 13.9C16.2 12.4 16.3 10.7 15.5 9.3Z" fill="#A5ADBB"/>
</svg>
