<svg width="20" height="16" viewBox="0 0 20 16" fill="none" xmlns="http://www.w3.org/2000/svg">
<path d="M9.89266 1.51385L10.3988 0.673848C10.7113 0.148848 11.4081 -0.0281525 11.9549 0.271848C12.5017 0.571848 12.6861 1.24085 12.3736 1.76585L7.49609 9.87186H11.0238C12.1674 9.87186 12.8079 11.1619 12.3111 12.0559H1.96866C1.33749 12.0559 0.831299 11.5699 0.831299 10.9639C0.831299 10.3579 1.33749 9.87186 1.96866 9.87186H4.86829L8.58033 3.69485L7.4211 1.76285C7.10864 1.23785 7.29299 0.574848 7.8398 0.268848C8.3866 -0.0311522 9.07714 0.145848 9.39585 0.670848L9.89266 1.51385ZM5.50571 13.1809L4.4121 15.0019C4.09964 15.5269 3.40285 15.7039 2.85604 15.4039C2.30924 15.1039 2.12489 14.4349 2.43735 13.9099L3.24975 12.5599C4.16838 12.2869 4.91516 12.4969 5.50571 13.1809ZM14.9233 9.87786H17.8823C18.5135 9.87786 19.0196 10.3639 19.0196 10.9699C19.0196 11.5759 18.5135 12.0619 17.8823 12.0619H16.2387L17.348 13.9099C17.6604 14.4349 17.4761 15.0979 16.9293 15.4039C16.3825 15.7039 15.6919 15.5269 15.3732 15.0019C13.5047 11.8909 12.1018 9.56286 11.1706 8.01185C10.2176 6.43385 10.8988 4.84985 11.5706 4.31285C12.3174 5.54285 13.4328 7.39985 14.9233 9.87786Z" fill="white"/>
</svg>
