<svg width="14" height="14" viewBox="0 0 14 14" fill="none" xmlns="http://www.w3.org/2000/svg">
<path d="M0.211378 6.51217C1.64362 5.5596 3.24239 4.76457 4.73621 3.96548C7.30616 2.65664 9.88631 1.37048 12.4925 0.173073C12.9996 -0.0309523 13.9107 -0.230478 14 0.67685C13.9511 1.96116 13.7499 3.23796 13.6118 4.51475C13.2615 7.32254 12.8565 10.1207 12.4617 12.9192C12.3256 13.8514 11.3585 14.334 10.7397 13.7374C9.25248 12.5245 7.75386 11.3234 6.28567 10.0824C5.80473 9.4923 6.2507 8.64494 6.68024 8.22358C7.90512 6.76606 9.20413 5.52773 10.365 3.99489C10.6781 3.08183 9.75292 3.85133 9.44774 4.0871C7.77086 5.48236 6.13503 6.96281 4.36707 8.18906C3.464 8.7893 2.41146 8.27634 1.5088 7.94139C0.699444 7.53679 -0.486472 7.12911 0.211378 6.51217Z" fill="#A5ADBB"/>
</svg>
