<svg width="25" height="24" viewBox="0 0 25 24" fill="none" xmlns="http://www.w3.org/2000/svg">
<path fill-rule="evenodd" clip-rule="evenodd" d="M24.8789 12C24.8789 18.6274 19.5063 24 12.8789 24C6.25151 24 0.878906 18.6274 0.878906 12C0.878906 5.3726 6.25151 0 12.8789 0C19.5063 0 24.8789 5.3726 24.8789 12ZM8.91466 10.9008C7.71256 11.4256 6.47746 11.9649 5.34803 12.587C4.75829 13.0188 5.5421 13.3243 6.27746 13.6108C6.39436 13.6563 6.51001 13.7014 6.61876 13.7464C6.70926 13.7742 6.80126 13.8035 6.89451 13.8332C7.71236 14.0938 8.62426 14.3843 9.41826 13.9473C10.7226 13.198 11.9534 12.3318 13.1834 11.4662C13.5863 11.1826 13.9892 10.8992 14.3945 10.6199C14.4135 10.6077 14.4349 10.5938 14.4583 10.5786C14.8036 10.3548 15.5801 9.85145 15.2929 10.545C14.6137 11.2878 13.8861 11.9454 13.1547 12.6065C12.6617 13.0521 12.1669 13.4993 11.6839 13.9753C11.2632 14.3171 10.8264 15.0044 11.2974 15.483C12.3824 16.2425 13.4843 16.9836 14.5855 17.7243C14.9439 17.9653 15.3022 18.2064 15.6598 18.448C16.2659 18.9319 17.2132 18.5404 17.3464 17.7843C17.4057 17.4364 17.4652 17.0886 17.5247 16.7407C17.8535 14.8184 18.1824 12.8954 18.4729 10.9668C18.5124 10.6642 18.5572 10.3617 18.602 10.059C18.7105 9.3255 18.8192 8.59105 18.8532 7.85355C18.7657 7.11755 17.8733 7.2794 17.3767 7.4449C14.8241 8.4162 12.297 9.4595 9.77986 10.5212C9.49471 10.6475 9.20566 10.7737 8.91466 10.9008Z" fill="white"/>
</svg>
