<svg width="25" height="24" viewBox="0 0 25 24" fill="none" xmlns="http://www.w3.org/2000/svg">
<path fill-rule="evenodd" clip-rule="evenodd" d="M0.878906 12C0.878906 5.37258 6.25149 0 12.8789 0C19.5063 0 24.8789 5.37258 24.8789 12C24.8789 18.6274 19.5063 24 12.8789 24C6.25149 24 0.878906 18.6274 0.878906 12ZM13.5067 15.938C13.5067 15.938 13.7377 15.9128 13.856 15.7881C13.9643 15.6738 13.9606 15.4581 13.9606 15.4581C13.9606 15.4581 13.9462 14.4509 14.4226 14.3022C14.8921 14.1559 15.495 15.2762 16.1348 15.707C16.6182 16.0327 16.985 15.9614 16.985 15.9614L18.6948 15.938C18.6948 15.938 19.5888 15.884 19.1649 15.1938C19.1299 15.1373 18.9176 14.6832 17.894 13.7503C16.8216 12.7738 16.9656 12.9318 18.2565 11.2424C19.0428 10.2137 19.3571 9.58567 19.2588 9.31712C19.1655 9.06025 18.5871 9.12846 18.5871 9.12846L16.6626 9.14014C16.6626 9.14014 16.5199 9.12109 16.4141 9.18316C16.3108 9.24399 16.2438 9.38595 16.2438 9.38595C16.2438 9.38595 15.9395 10.1818 15.5332 10.859C14.6762 12.2871 14.3337 12.3627 14.1935 12.2742C13.8673 12.0671 13.9487 11.4434 13.9487 11.0003C13.9487 9.61578 14.1628 9.03874 13.5324 8.88941C13.3233 8.83963 13.1693 8.80707 12.634 8.80153C11.9472 8.79477 11.3662 8.80399 11.0369 8.96193C10.8178 9.06701 10.6488 9.30176 10.7521 9.31528C10.8792 9.33187 11.1671 9.39148 11.3199 9.5955C11.5171 9.85913 11.5102 10.4503 11.5102 10.4503C11.5102 10.4503 11.6235 12.08 11.2454 12.2822C10.9862 12.4211 10.6306 12.1378 9.86622 10.8418C9.47494 10.1781 9.17945 9.44433 9.17945 9.44433C9.17945 9.44433 9.12247 9.30729 9.02043 9.23355C8.8971 9.14444 8.72493 9.11679 8.72493 9.11679L6.89625 9.12846C6.89625 9.12846 6.62141 9.13584 6.52062 9.25321C6.43109 9.35707 6.51373 9.57277 6.51373 9.57277C6.51373 9.57277 7.9455 12.8611 9.56697 14.5185C11.0538 16.0376 12.7417 15.938 12.7417 15.938H13.5067Z" fill="white"/>
</svg>
