<svg width="16" height="9" viewBox="0 0 16 9" fill="none" xmlns="http://www.w3.org/2000/svg">
<path fill-rule="evenodd" clip-rule="evenodd" d="M8.69344 8.61965C8.69344 8.61965 8.96224 8.59033 9.09992 8.44518C9.22595 8.31218 9.22157 8.06119 9.22157 8.06119C9.22157 8.06119 9.20482 6.88922 9.75918 6.71618C10.3055 6.546 11.007 7.84954 11.7515 8.35079C12.3139 8.72976 12.7408 8.64682 12.7408 8.64682L14.7302 8.61965C14.7302 8.61965 15.7704 8.55672 15.2772 7.75372C15.2364 7.68794 14.9895 7.15951 13.7985 6.07406C12.5506 4.93785 12.7182 5.12162 14.2203 3.15594C15.1352 1.95894 15.5009 1.22816 15.3865 0.915682C15.278 0.616791 14.6049 0.696161 14.6049 0.696161L12.3656 0.709747C12.3656 0.709747 12.1995 0.687581 12.0764 0.759801C11.9562 0.830591 11.8783 0.995768 11.8783 0.995768C11.8783 0.995768 11.5242 1.92176 11.0515 2.70975C10.0542 4.37153 9.65574 4.45948 9.49256 4.35651C9.11304 4.11554 9.20773 3.38976 9.20773 2.87421C9.20773 1.2632 9.45687 0.591764 8.72331 0.418006C8.48 0.360087 8.3008 0.322189 7.67797 0.315754C6.87885 0.307888 6.20285 0.318614 5.81968 0.502382C5.56472 0.624656 5.36803 0.897806 5.48823 0.913537C5.63611 0.932843 5.9712 1.0022 6.14894 1.2396C6.3784 1.54636 6.37039 2.23424 6.37039 2.23424C6.37039 2.23424 6.50224 4.13055 6.06225 4.36581C5.76067 4.52741 5.34691 4.19777 4.45746 2.68973C4.00218 1.91747 3.65834 1.0637 3.65834 1.0637C3.65834 1.0637 3.59205 0.904241 3.47332 0.818435C3.32981 0.714753 3.12948 0.682575 3.12948 0.682575L1.00166 0.696161C1.00166 0.696161 0.681865 0.704742 0.564584 0.841317C0.460414 0.962161 0.556571 1.21314 0.556571 1.21314C0.556571 1.21314 2.22255 5.03938 4.10926 6.96788C5.83935 8.73549 7.80327 8.61965 7.80327 8.61965H8.69344Z" fill="#A5ADBB"/>
</svg>
